<?xml version="1.0" encoding="UTF-8" standalone="no"?>
<!-- Created with Inkscape (http://www.inkscape.org/) -->

<svg
   xmlns:dc="http://purl.org/dc/elements/1.1/"
   xmlns:cc="http://creativecommons.org/ns#"
   xmlns:rdf="http://www.w3.org/1999/02/22-rdf-syntax-ns#"
   xmlns:svg="http://www.w3.org/2000/svg"
   xmlns="http://www.w3.org/2000/svg"
   version="1.1"
   width="150"
   height="150"
   id="svg3062"
   xml:space="preserve"><metadata
     id="metadata3068"><rdf:RDF><cc:Work
         rdf:about=""><dc:format>image/svg+xml</dc:format><dc:type
           rdf:resource="http://purl.org/dc/dcmitype/StillImage" /><dc:title></dc:title></cc:Work></rdf:RDF></metadata><defs
     id="defs3066" /><g
     transform="matrix(1.25,0,0,-1.25,0,150)"
     id="g3070"><g
       id="g3072"><path
         d="M 0,0 120,0 120,120 0,120 0,0 z"
         id="path3074"
         style="fill:#154889;fill-opacity:1;fill-rule:nonzero;stroke:none" /><path
         d="m 39.695,22.855 -31.695,0 23.77,74.29 10.648,0 -2.723,-74.29 z m 8.914,0 -2.722,74.29 10.648,0 8.008,-25.036 c 6.035,6.606 13.895,11.528 22.473,14.075 l -9.563,8.027 c -0.875,0.773 -0.535,2.473 0.574,2.844 0.172,0.058 0.352,0.09 0.536,0.09 l 31.761,0 c 1.102,0 1.969,-1.313 1.547,-2.325 L 99.566,65.535 c -0.453,-1.078 -2.171,-1.297 -2.875,-0.363 -0.113,0.144 -0.199,0.305 -0.253,0.476 l -4.727,14.106 c -4.535,-1.649 -8.715,-4.25 -11.859,-7.379 -3.145,-3.129 -5.243,-6.773 -5.95,-10.34 l -0.05,-0.277 C 72.445,54.531 73.543,43.988 76.738,34 l 3.567,-11.145 -31.696,0 z"
         id="path3076"
         style="fill:#ffffff;fill-opacity:1;fill-rule:evenodd;stroke:none" /></g></g></svg>